<svg width="47" height="47" viewBox="0 0 47 47" fill="none" xmlns="http://www.w3.org/2000/svg">
<g clip-path="url(#clip0_56_173)">
<path d="M43.9822 15.8624L30.4227 2.86694C28.5851 1.04862 26.1059 0.0262707 23.5207 0.0207742C20.9355 0.0152778 18.452 1.02708 16.6067 2.83757L3.01583 15.8624C2.06529 16.778 1.30848 17.8752 0.790401 19.089C0.272317 20.3028 0.00352544 21.6084 0 22.9281L0 37.2083C0.00310955 39.8042 1.03573 42.293 2.87135 44.1286C4.70697 45.9642 7.19571 46.9968 9.79167 46.9999H37.2083C39.8043 46.9968 42.293 45.9642 44.1287 44.1286C45.9643 42.293 46.9969 39.8042 47 37.2083V22.9281C46.9966 21.6082 46.7276 20.3024 46.2092 19.0886C45.6907 17.8747 44.9334 16.7776 43.9822 15.8624ZM19.3464 5.63602C20.4568 4.53543 21.9587 3.92056 23.5222 3.92643C25.0856 3.93231 26.5828 4.55845 27.685 5.66736L40.8978 18.326L27.6536 31.5722C26.5341 32.6394 25.0467 33.2347 23.5 33.2347C21.9533 33.2347 20.4659 32.6394 19.3464 31.5722L6.10021 18.326L19.3464 5.63602ZM43.0833 37.2083C43.0833 38.7664 42.4644 40.2608 41.3626 41.3625C40.2608 42.4643 38.7665 43.0833 37.2083 43.0833H9.79167C8.23352 43.0833 6.73919 42.4643 5.63741 41.3625C4.53564 40.2608 3.91667 38.7664 3.91667 37.2083V22.9281C3.91864 22.548 3.95733 22.1689 4.03221 21.7962L16.5773 34.3413C18.4195 36.1655 20.9074 37.1888 23.5 37.1888C26.0926 37.1888 28.5805 36.1655 30.4227 34.3413L42.9678 21.7962C43.0427 22.1689 43.0814 22.548 43.0833 22.9281V37.2083Z" fill="#564E8E"/>
</g>
<defs>
<clipPath id="clip0_56_173">
<rect width="47" height="47" fill="white"/>
</clipPath>
</defs>
</svg>
