<svg width="47" height="47" viewBox="0 0 47 47" fill="none" xmlns="http://www.w3.org/2000/svg">
<path d="M23.5001 23.5C25.0494 23.5 26.5639 23.0406 27.8521 22.1798C29.1403 21.3191 30.1443 20.0957 30.7372 18.6644C31.3301 17.233 31.4852 15.658 31.1829 14.1385C30.8807 12.6189 30.1346 11.2232 29.0391 10.1277C27.9436 9.03215 26.5478 8.2861 25.0283 7.98385C23.5088 7.6816 21.9338 7.83672 20.5024 8.42961C19.0711 9.0225 17.8477 10.0265 16.9869 11.3147C16.1262 12.6029 15.6668 14.1174 15.6668 15.6667C15.6668 17.7442 16.4921 19.7366 17.9611 21.2057C19.4301 22.6747 21.4226 23.5 23.5001 23.5ZM23.5001 11.75C24.2748 11.75 25.032 11.9797 25.6761 12.4101C26.3202 12.8404 26.8222 13.4521 27.1186 14.1678C27.4151 14.8835 27.4926 15.671 27.3415 16.4308C27.1904 17.1905 26.8174 17.8884 26.2696 18.4362C25.7219 18.9839 25.024 19.357 24.2642 19.5081C23.5045 19.6592 22.7169 19.5816 22.0013 19.2852C21.2856 18.9888 20.6739 18.4867 20.2435 17.8427C19.8131 17.1986 19.5834 16.4413 19.5834 15.6667C19.5834 14.6279 19.9961 13.6317 20.7306 12.8972C21.4651 12.1626 22.4613 11.75 23.5001 11.75ZM40.4593 17.9325L39.0512 17.4644C39.3046 15.2709 39.0915 13.0487 38.4257 10.9433C37.76 8.83801 36.6568 6.89718 35.1884 5.24812C33.72 3.59906 31.9196 2.27903 29.9053 1.37458C27.8909 0.470132 25.7082 0.00169882 23.5001 0C21.2632 0.000863565 19.0525 0.481151 17.0169 1.4085C14.9813 2.33585 13.1681 3.68873 11.6994 5.37597C10.2308 7.06321 9.14084 9.04563 8.50302 11.1897C7.86519 13.3337 7.6943 15.5895 8.00186 17.8052C6.1278 18.1546 4.39485 19.0388 3.01203 20.351C2.05474 21.2611 1.29372 22.3574 0.775763 23.5725C0.257801 24.7876 -0.00615969 26.0958 0.000109093 27.4167V35.3969C0.00422472 37.5145 0.692952 39.574 1.96352 41.2681C3.23408 42.9622 5.01836 44.2 7.05011 44.7969L12.6705 46.5594C13.6146 46.8532 14.5978 47.0018 15.5865 47C16.4834 46.9989 17.376 46.8763 18.24 46.6357L29.5592 43.287C30.5676 43.0118 31.6313 43.0118 32.6396 43.287L37.3142 44.8537C38.4663 45.1341 39.667 45.1493 40.8258 44.8982C41.9846 44.6471 43.0713 44.1361 44.004 43.404C44.9366 42.6718 45.6909 41.7374 46.2099 40.6713C46.7289 39.6052 46.9991 38.4352 47.0001 37.2495V27.166C46.9957 25.1399 46.3647 23.1648 45.1937 21.5114C44.0227 19.858 42.369 18.6092 40.4593 17.9325ZM15.1929 7.36725C16.2822 6.2735 17.5768 5.40563 19.0024 4.81345C20.4279 4.22127 21.9564 3.91643 23.5001 3.91643C25.0438 3.91643 26.5723 4.22127 27.9978 4.81345C29.4234 5.40563 30.718 6.2735 31.8074 7.36725C34.0049 9.57849 35.2402 12.5682 35.2442 15.6857C35.2482 18.8032 34.0207 21.7962 31.8289 24.0131L24.8709 30.7791C24.5078 31.1352 24.0195 31.3346 23.5109 31.3346C23.0023 31.3346 22.514 31.1352 22.1508 30.7791L15.1929 24.0425C12.9907 21.8264 11.7546 18.8291 11.7546 15.7049C11.7546 12.5806 12.9907 9.58332 15.1929 7.36725ZM43.0834 37.2495C43.0846 37.8426 42.9505 38.4282 42.6912 38.9617C42.432 39.4951 42.0544 39.9624 41.5873 40.328C41.1459 40.6828 40.6318 40.9361 40.0814 41.0698C39.5311 41.2035 38.958 41.2143 38.403 41.1015L33.8107 39.5583C32.0737 39.0593 30.2327 39.0485 28.4899 39.527L17.1629 42.8718C16.0746 43.172 14.9229 43.1523 13.8455 42.815L8.17811 41.0525C6.95151 40.6978 5.87307 39.9548 5.1047 38.935C4.33633 37.9152 3.91949 36.6737 3.91678 35.3969V27.4167C3.91237 26.6251 4.06993 25.8409 4.37977 25.1125C4.6896 24.3841 5.14517 23.7267 5.71844 23.1808C6.61586 22.3255 7.75906 21.7734 8.9869 21.6024C9.77631 23.5591 10.9519 25.3367 12.4434 26.8292L19.4287 33.5913C20.5205 34.6604 21.9877 35.2591 23.5158 35.2591C25.0438 35.2591 26.511 34.6604 27.6028 33.5913L34.5804 26.8096C36.1426 25.241 37.3529 23.3578 38.1308 21.2851L39.1824 21.6337C40.3229 22.0424 41.3095 22.793 42.0077 23.783C42.7058 24.7731 43.0815 25.9545 43.0834 27.166V37.2495Z" fill="#564E8E"/>
</svg>
