<svg width="47" height="47" viewBox="0 0 47 47" fill="none" xmlns="http://www.w3.org/2000/svg">
<path d="M23.5 47C10.5417 47 0 36.4583 0 23.5C0 10.5417 10.5417 0 23.5 0C36.4583 0 47 10.5417 47 23.5C47 36.4583 36.4583 47 23.5 47ZM23.5 3.91667C12.7018 3.91667 3.91667 12.7018 3.91667 23.5C3.91667 34.2983 12.7018 43.0833 23.5 43.0833C34.2983 43.0833 43.0833 34.2983 43.0833 23.5C43.0833 12.7018 34.2983 3.91667 23.5 3.91667ZM14.9538 27.3599L12.4041 29.3182C11.5307 30.1916 11.5307 31.6095 12.4041 32.4829L13.4263 33.6579C14.5054 34.7389 15.9271 35.25 17.343 35.25C24.6163 35.25 35.248 25.1783 35.248 17.345C35.248 15.9291 34.7369 14.5073 33.6559 13.4283L32.4809 12.406C31.6075 11.5326 30.1897 11.5326 29.3163 12.406L27.3579 14.9558C26.4845 15.8292 26.4845 17.247 27.3579 18.1205L29.0245 20.2139C27.26 24.6084 24.2677 27.4793 20.212 29.0264L18.1185 27.3599C17.2451 26.4865 15.8273 26.4865 14.9538 27.3599Z" fill="#564E8E"/>
</svg>
